<mxfile host="app.diagrams.net" modified="2024-03-25T01:35:00.662Z" agent="Mozilla/5.0 (Macintosh; Intel Mac OS X 10_15_7) AppleWebKit/537.36 (KHTML, like Gecko) Chrome/123.0.0.0 Safari/537.36" version="24.1.0" etag="8-sESYjdMkPEUepux_NI" type="github">
  <diagram name="Page-1" id="7beVuulWPfsMuUyddqRr">
    <mxGraphModel>
      <root>
        <mxCell id="0" />
        <mxCell id="1" parent="0" />
      </root>
    </mxGraphModel>
  </diagram>
</mxfile>
